<svg version="1.1" id="Layer_1" xmlns="http://www.w3.org/2000/svg" xmlns:xlink="http://www.w3.org/1999/xlink" x="0px" y="0px"
	 width="100%" viewBox="0 0 496 496" enable-background="new 0 0 496 496" xml:space="preserve">
<path fill="#000000" opacity="1.000000" stroke="none" 
	d="
M208.810379,174.904510 
	C209.486877,170.045227 210.076355,165.601120 210.722290,161.165222 
	C211.554138,155.452545 214.730850,152.716583 220.515106,152.663864 
	C228.527206,152.590836 228.527206,152.590836 232.589218,160.154526 
	C233.825577,160.101959 234.125870,159.114838 234.586884,158.226089 
	C237.715820,152.194138 244.233078,149.653534 250.571472,152.050858 
	C253.303131,153.084045 254.101181,155.517456 254.185867,158.093765 
	C254.338989,162.751602 254.018723,167.434067 254.349289,172.073975 
	C254.591751,175.477066 250.557526,176.487198 250.236481,180.236252 
	C253.443756,179.115021 256.120392,178.383041 258.620880,177.259201 
	C262.775909,175.391769 267.115417,176.142822 271.354706,176.219574 
	C274.714020,176.280396 276.360931,179.613098 274.621735,182.921890 
	C271.823639,188.245224 268.722839,193.496262 262.312561,195.262436 
	C260.153717,195.857269 258.953888,197.122055 258.302460,199.235199 
	C256.144318,206.235733 254.844696,212.848465 259.713623,219.677277 
	C262.424866,223.479950 263.470093,228.506485 265.090973,233.044022 
	C270.406342,247.924026 278.593750,261.609467 283.190399,276.788818 
	C286.804108,288.722260 290.234100,300.722961 294.279755,312.510498 
	C297.938690,323.171234 301.292725,334.029724 307.989655,343.395203 
	C309.866180,346.019440 308.675293,348.576935 305.692719,348.064819 
	C299.051666,346.924561 292.875153,349.378540 286.446808,349.693146 
	C282.165100,349.902679 280.192261,348.476410 279.313751,344.681244 
	C278.317871,340.379028 275.426331,340.577667 272.455353,342.090454 
	C267.004730,344.865814 262.201874,344.999451 257.089478,341.911591 
	C254.804611,347.053436 249.986069,343.791901 246.349014,344.949799 
	C244.884674,345.416016 244.677002,343.167816 244.765961,341.890961 
	C245.779053,327.347961 243.414337,313.030426 241.512115,298.734497 
	C240.423294,290.551544 237.917007,282.547974 235.907913,274.498840 
	C233.052505,263.059021 229.917419,251.687042 227.201050,240.215256 
	C225.849762,234.508530 222.835953,230.582199 217.275269,228.815216 
	C211.854462,227.092667 209.204376,223.417862 208.607742,217.869629 
	C208.268097,214.711227 207.103683,211.699921 205.557419,208.941193 
	C203.929108,206.036133 202.093170,203.471558 198.115616,203.069992 
	C195.569077,202.812897 193.034363,201.489700 190.702454,200.252243 
	C185.763733,197.631454 185.663467,193.617218 190.342499,190.740082 
	C192.043564,189.694077 193.834579,188.795700 195.883530,188.588394 
	C203.891296,187.778183 207.979965,183.158707 208.810379,174.904510 
M239.129288,180.927994 
	C236.162384,178.530060 233.367798,175.954971 230.026245,173.986603 
	C227.567566,172.538345 225.950943,172.498856 224.079575,174.761154 
	C220.477875,179.115219 216.620255,183.257004 212.997513,187.594345 
	C210.144913,191.009613 210.648270,193.325577 214.490112,195.334473 
	C215.997696,196.122772 217.612610,196.702621 216.868805,198.972534 
	C214.802505,205.278519 218.684036,210.931381 225.433472,211.498032 
	C224.973114,217.944504 225.123505,218.150360 231.264679,215.459930 
	C234.668503,213.968735 237.671112,216.027817 240.979294,215.320404 
	C240.538452,217.671860 237.442795,217.501816 237.904617,220.011948 
	C241.658035,220.205704 243.290573,218.274475 243.653122,214.752380 
	C243.941772,211.948364 244.200500,209.093033 244.962997,206.399323 
	C245.755280,203.600479 245.811905,201.889786 242.479034,200.723129 
	C240.070236,199.879974 238.367889,197.276871 241.880463,195.741653 
	C245.607315,194.112747 245.778946,192.084686 244.651352,188.753891 
	C243.941254,186.656281 243.686920,184.303833 244.429321,182.261230 
	C242.891357,180.804596 241.261093,181.606903 239.129288,180.927994 
M265.540985,310.207672 
	C262.842010,311.299438 260.734772,314.602356 257.349640,311.940918 
	C254.545715,319.746490 257.075165,325.506165 263.367493,326.566925 
	C268.080750,327.361511 273.320984,322.876862 272.493958,318.281189 
	C272.021240,315.654449 272.673004,313.501678 273.633331,311.517914 
	C271.298767,308.873779 268.866089,308.814209 265.540985,310.207672 
M255.052826,274.686279 
	C252.769379,274.034241 250.937881,275.006714 250.073105,276.910004 
	C248.659302,280.021637 250.403687,283.017212 251.131897,286.011963 
	C251.673004,288.237244 253.648560,290.067230 255.403748,289.194763 
	C259.020538,287.396942 263.856201,289.382782 266.565125,285.434357 
	C266.954010,284.867523 266.763123,283.813843 266.655548,283.010223 
	C266.068695,278.626953 263.089935,275.052338 263.282623,270.505219 
	C259.444977,270.828583 259.312714,275.582703 255.052826,274.686279 
M240.279312,239.175201 
	C243.008514,240.669632 244.731918,237.719223 247.236053,237.635086 
	C253.097794,237.438095 253.520355,236.642059 251.689743,231.207153 
	C251.075882,229.384644 250.726761,227.371689 248.799408,225.884033 
	C245.611511,228.760681 241.533813,230.075226 237.580505,231.915833 
	C238.151382,234.428177 238.310699,236.741898 240.279312,239.175201 
M243.436432,255.148788 
	C245.928329,261.755524 247.082520,262.210236 256.117004,259.910126 
	C254.497116,256.310883 253.950806,252.333115 251.388107,248.832565 
	C248.772537,250.133545 245.936295,249.207077 243.486023,249.750717 
	C242.369354,251.525497 243.249557,252.972763 243.436432,255.148788 
M280.565002,326.170502 
	C280.005096,328.017212 280.352600,329.840576 281.289764,331.376770 
	C282.232941,332.922821 283.889618,333.897278 285.729431,333.903748 
	C286.848511,333.907684 288.166595,333.098785 288.221832,331.895142 
	C288.329987,329.536896 287.180298,327.415405 285.844818,325.585144 
	C284.419067,323.631195 282.627197,324.921295 280.565002,326.170502 
M275.228729,300.369690 
	C278.625702,298.705963 276.266296,296.539886 275.552948,294.723389 
	C275.019470,293.364929 273.470093,292.755127 272.291534,293.915466 
	C270.699066,295.483307 271.455139,297.331512 272.588806,298.847290 
	C273.032867,299.440979 273.986206,299.653717 275.228729,300.369690 
M260.429779,183.413208 
	C259.361542,183.329926 258.604034,183.936340 257.873444,184.582535 
	C256.842194,185.494690 256.830811,186.527893 257.614990,187.583557 
	C258.141083,188.291779 258.967072,188.771255 259.686188,188.161713 
	C261.053223,187.002960 262.305878,185.660416 260.429779,183.413208 
z"/>
</svg>